<svg xmlns="http://www.w3.org/2000/svg" xmlns:xlink="http://www.w3.org/1999/xlink" width="273.146" height="98.618" viewBox="0 0 273.146 98.618"><defs><clipPath id="a"><path d="M0,39.726H273.145V-58.892H0Z" transform="translate(0 58.892)" fill="none"/></clipPath></defs><g transform="translate(0 0)"><g transform="translate(0 3.026)"><path d="M10.87,0V19.517H-5.255V0H-16.114V50.1H-5.255V29.136H10.87V50.1H21.728V0Z" transform="translate(16.114)" fill="#ff2d16"/></g><g transform="translate(0.001 0)" clip-path="url(#a)"><g transform="translate(44.623 15.995)"><path d="M8.716,14.96l-.628-3.61H7.872a11.93,11.93,0,0,1-9.687,4.359A10.754,10.754,0,0,1-12.921,4.6c0-9.5,8.455-13.818,19.932-13.828v-.568c0-2.217-1.227-4.781-6.2-4.772a18.68,18.68,0,0,0-9.24,2.537l-1.988-7.035A27.759,27.759,0,0,1,2.877-22.177c11.792,0,15.019,7.336,15.019,15.528V6.294a52.816,52.816,0,0,0,.564,8.666ZM7.336-2.4c-5.133-.007-9.7,1.331-9.7,5.881,0,3.13,1.946,4.526,4.2,4.526a5.553,5.553,0,0,0,5.29-3.867A6.6,6.6,0,0,0,7.336,2.29Z" transform="translate(12.921 22.177)" fill="#ff2d16"/></g></g><path d="M50.007-6.065H60.865V-58.443H50.007Z" transform="translate(33.733 59.195)" fill="#ff2d16"/><g transform="translate(0.001 0)" clip-path="url(#a)"><g transform="translate(99.661 -0.001)"><path d="M1.947,21.4V-7.07H-2.887v-7.914H1.947v-1.4c0-4.3,1.194-8.8,4.329-11.791a13.9,13.9,0,0,1,9.664-3.553,20.615,20.615,0,0,1,5.941.792l-.64,8.348a11.033,11.033,0,0,0-3.465-.512c-3.567,0-5.032,2.905-5.032,6.32v1.8h6.986V-7.07H12.807V21.4Z" transform="translate(2.887 31.728)" fill="#ff2d16"/></g><g transform="translate(127.792 2.686)"><path d="M0,.414A79.227,79.227,0,0,1,13.76-.613c6.606,0,11.489,1.2,14.818,3.992a14.482,14.482,0,0,1,5.005,11.4c0,5.071-1.606,9.146-4.476,11.923-3.642,3.538-9.193,5.161-15.046,5.161a26.162,26.162,0,0,1-3.292-.189V49.831H0Zm10.769,22.74a14.656,14.656,0,0,0,3.118.243c5.685,0,8.939-3.18,8.939-8.14,0-4.536-2.743-7.494-8.1-7.494a16.825,16.825,0,0,0-3.959.373Z" transform="translate(0 0.613)" fill="#ff2d16"/></g><g transform="translate(166.845 15.992)"><path d="M.119,5.008C.119.185,0-3.457-.177-6.674H9.159L9.6-.359h.275c1.787-4.891,5.771-7.065,9.036-7.065a9.638,9.638,0,0,1,2.316.2V3.117a13.192,13.192,0,0,0-2.776-.256,7,7,0,0,0-7.194,5.571,13.075,13.075,0,0,0-.275,2.853V29.713H.119Z" transform="translate(0.177 7.424)" fill="#ff2d16"/></g></g><path d="M115.49-48.893h10.859v36.386H115.49Z" transform="translate(77.905 65.637)" fill="#ff2d16"/><g transform="translate(0.001 0)" clip-path="url(#a)"><g transform="translate(210.816 16.047)"><path d="M10.876,14.6A23.606,23.606,0,0,1,1.92,16.111c-11,0-18.043-6.949-18.043-18.517,0-10.824,7.078-19.244,19.571-19.244a22.493,22.493,0,0,1,7.639,1.3l-1.614,8.17A13.824,13.824,0,0,0,3.953-13.19c-5.595,0-9.106,4.309-9.073,10.374,0,6.651,3.975,10.355,9.168,10.355A14.189,14.189,0,0,0,9.7,6.481Z" transform="translate(16.123 21.65)" fill="#ff2d16"/></g><g transform="translate(240.85 15.994)"><path d="M4.182,9.075c.27,4.99,4.5,7.179,9.488,7.179a27.426,27.426,0,0,0,9.091-1.45l1.45,7.45A33.264,33.264,0,0,1,11.99,24.362C.387,24.362-6.2,17.374-6.2,6.03c0-10.144,5.946-19.483,17.2-19.483,10.6,0,15.091,8.267,15.091,17.874a23.736,23.736,0,0,1-.373,4.654ZM16.074,1.6C16.1-1.7,14.875-6.058,10.4-6.058,6.109-6.058,4.366-1.6,4.121,1.6Z" transform="translate(6.199 13.453)" fill="#ff2d16"/></g><g transform="translate(192.528 5.434)"><path d="M0,0A5.9,5.9,0,0,0,6.146,5.626c3.707,0,6.167-2.4,6.388-5.626Z" fill="#ff2d16"/></g><g transform="translate(61.563 79.872)"><path d="M6.275,7.093A18.083,18.083,0,0,1,.4,8.123c-3.09,0-5.419-.787-7.152-2.438A9.045,9.045,0,0,1-9.3-1.034C-9.3-6.8-5.184-10.515.856-10.515a12.136,12.136,0,0,1,4.85.866L4.974-6.967A9.823,9.823,0,0,0,.829-7.752c-3.9,0-6.636,2.3-6.636,6.556,0,4.145,2.547,6.609,6.338,6.609a6.367,6.367,0,0,0,2.52-.38V.483H-.172V-2.146H6.275Z" transform="translate(9.302 10.515)" fill="#ff2d16"/></g><g transform="translate(80.388 84.828)"><path d="M.044,1.833C.044.045.017-1.228-.065-2.42h2.9L2.942.1h.109a3.935,3.935,0,0,1,3.6-2.818,3.438,3.438,0,0,1,.785.082V.506A4.673,4.673,0,0,0,6.464.4,2.937,2.937,0,0,0,3.483,2.917a5.777,5.777,0,0,0-.107,1.03v6.827H.044Z" transform="translate(0.065 2.718)" fill="#ff2d16"/></g><g transform="translate(89.056 84.829)"><path d="M1.288,3.154C1.37,5.538,3.239,6.566,5.352,6.566a9.9,9.9,0,0,0,3.657-.6l.487,2.3a12.4,12.4,0,0,1-4.607.814c-4.278,0-6.8-2.627-6.8-6.665,0-3.657,2.222-7.1,6.447-7.1,4.28,0,5.688,3.522,5.688,6.42a8.286,8.286,0,0,1-.107,1.408ZM7.085.824C7.112-.395,6.571-2.4,4.349-2.4,2.289-2.4,1.423-.53,1.288.824Z" transform="translate(1.909 4.675)" fill="#ff2d16"/></g><g transform="translate(102.95 84.83)"><path d="M3.361,5.434,3.144,3.971h-.08a4.9,4.9,0,0,1-3.9,1.762A3.917,3.917,0,0,1-4.983,1.8c0-3.332,2.954-5.01,7.83-4.983V-3.4c0-.866-.353-2.3-2.683-2.3a7,7,0,0,0-3.548.975l-.65-2.167A9.493,9.493,0,0,1,.734-8.056c4.227,0,5.444,2.681,5.444,5.553V2.264a21.11,21.11,0,0,0,.191,3.17ZM2.928-1.013C.571-1.068-1.677-.552-1.677,1.452a1.748,1.748,0,0,0,1.9,1.9,2.7,2.7,0,0,0,2.6-1.815A2.363,2.363,0,0,0,2.928.8Z" transform="translate(4.983 8.056)" fill="#ff2d16"/></g><g transform="translate(116.142 81.362)"><path d="M2.074,0V3.766h3.17V6.258H2.074v5.824c0,1.6.434,2.438,1.706,2.438a4.967,4.967,0,0,0,1.3-.162L5.135,16.9a7.333,7.333,0,0,1-2.411.325,3.854,3.854,0,0,1-2.87-1.083,5.256,5.256,0,0,1-1.03-3.686v-6.2h-1.9V3.766h1.9V.785Z" transform="translate(3.074)" fill="#ff2d16"/></g><g transform="translate(132.475 79.086)"><path d="M0,7.748C.054,6.854.109,5.39.109,4.037V-11.486H3.441v7.855h.054A4.772,4.772,0,0,1,7.72-5.742c3.225,0,5.528,2.681,5.5,6.69,0,4.742-3.007,7.1-5.988,7.1A4.538,4.538,0,0,1,3.061,5.77H3.007L2.845,7.748ZM3.441,2.3a3.733,3.733,0,0,0,.08.787A3.074,3.074,0,0,0,6.474,5.419c2.086,0,3.359-1.68,3.359-4.335,0-2.329-1.11-4.225-3.331-4.225A3.121,3.121,0,0,0,3.548-.7a4.005,4.005,0,0,0-.107.866Z" transform="translate(0 11.486)" fill="#ff2d16"/></g><g transform="translate(148.321 84.828)"><path d="M.043,1.833C.043.045.016-1.228-.064-2.42h2.9L2.942.1h.109a3.935,3.935,0,0,1,3.6-2.818,3.428,3.428,0,0,1,.785.082V.506A4.66,4.66,0,0,0,6.463.4,2.935,2.935,0,0,0,3.484,2.917a5.618,5.618,0,0,0-.109,1.03v6.827H.043Z" transform="translate(0.064 2.718)" fill="#ff2d16"/></g><g transform="translate(156.906 84.83)"><path d="M3.361,5.434,3.144,3.971h-.08a4.9,4.9,0,0,1-3.9,1.762A3.917,3.917,0,0,1-4.983,1.8c0-3.332,2.954-5.01,7.83-4.983V-3.4c0-.866-.353-2.3-2.683-2.3a7,7,0,0,0-3.548.975l-.65-2.167A9.493,9.493,0,0,1,.734-8.056c4.225,0,5.444,2.681,5.444,5.553V2.264a21.11,21.11,0,0,0,.191,3.17ZM2.928-1.013C.571-1.068-1.677-.552-1.677,1.452a1.748,1.748,0,0,0,1.9,1.9,2.7,2.7,0,0,0,2.6-1.815A2.363,2.363,0,0,0,2.928.8Z" transform="translate(4.983 8.056)" fill="#ff2d16"/></g><g transform="translate(171.479 84.828)"><path d="M.044,1.7c0-1.517-.027-2.79-.109-3.929H2.86L3.025-.248H3.1A4.757,4.757,0,0,1,7.3-2.524c2.3,0,4.685,1.49,4.685,5.662v7.83H8.658V3.518c0-1.9-.7-3.332-2.519-3.332a2.8,2.8,0,0,0-2.6,1.951A3.377,3.377,0,0,0,3.4,3.22v7.748H.044Z" transform="translate(0.065 2.524)" fill="#ff2d16"/></g><g transform="translate(186.241 79.086)"><path d="M5.238,0V15.523c0,1.353.054,2.817.109,3.711H2.366L2.23,17.147H2.177A4.748,4.748,0,0,1-2.13,19.532c-3.143,0-5.635-2.683-5.635-6.747-.027-4.414,2.736-7.041,5.906-7.041A4.205,4.205,0,0,1,1.852,7.477h.054V0ZM1.906,11.541a4.751,4.751,0,0,0-.08-.867A2.919,2.919,0,0,0-1.047,8.316c-2.14,0-3.332,1.9-3.332,4.362,0,2.411,1.192,4.171,3.306,4.171A2.939,2.939,0,0,0,1.8,14.493a3.753,3.753,0,0,0,.107-.976Z" transform="translate(7.765)" fill="#ff2d16"/></g><g transform="translate(202.006 84.829)"><path d="M.262,4.2a7.431,7.431,0,0,0,3.386.948c1.464,0,2.113-.6,2.113-1.462,0-.894-.543-1.355-2.167-1.924C1.02.869-.063-.54-.036-2.083c0-2.329,1.924-4.145,4.985-4.145a7.744,7.744,0,0,1,3.495.785L7.792-3.087A5.918,5.918,0,0,0,5-3.845c-1.192,0-1.842.569-1.842,1.382,0,.841.623,1.248,2.3,1.844C7.847.246,8.958,1.465,8.984,3.416c0,2.385-1.869,4.118-5.364,4.118A8.521,8.521,0,0,1-.388,6.612Z" transform="translate(0.388 6.228)" fill="#ff2d16"/></g></g></g></svg>