<svg xmlns="http://www.w3.org/2000/svg" width="99.131" height="122.837" viewBox="0 0 99.131 122.837"><g transform="translate(-17.555 -15.475)"><path d="M48,108.036a25.238,25.238,0,0,1-9.894,1.67c-13.4,0-20.316-8.375-20.316-19.412,0-13.2,9.461-20.506,21.148-20.506,4.551,0,8.011.889,9.531,1.722l-1.788,6.914a18.457,18.457,0,0,0-7.351-1.449c-6.907,0-12.317,4.209-12.317,12.807,0,7.765,4.574,12.636,12.365,12.636a21.006,21.006,0,0,0,7.319-1.249Z" transform="translate(0.123 28.606)"/><rect width="7.291" height="33.67" transform="translate(52.794 103.371)"/><path d="M70.508,95.327c0,3.02.093,5.51.189,7.44H64.441l-.331-3.273h-.151a8.235,8.235,0,0,1-7.235,3.8c-4.713,0-8.151-2.95-8.151-10.085V79.558H55.8V92.03c0,3.4,1.095,5.429,3.638,5.429a3.849,3.849,0,0,0,3.588-2.537,4.024,4.024,0,0,0,.263-1.531V79.558h7.224Z" transform="translate(16.337 33.752)"/><path d="M66.516,106.377c.1-1.537.189-4.3.189-6.936V72.707h7.217V85.933h.1a8.159,8.159,0,0,1,7-3.287c5.575,0,9.632,4.606,9.575,11.719,0,8.36-5.3,12.533-10.614,12.533a7.6,7.6,0,0,1-6.939-3.753h-.1l-.3,3.232Zm7.406-9.85a5.768,5.768,0,0,0,.127,1.266A4.417,4.417,0,0,0,78.3,101.23c3.066,0,4.975-2.391,4.975-6.562,0-3.611-1.614-6.459-4.962-6.459a4.43,4.43,0,0,0-4.243,3.56,6.429,6.429,0,0,0-.147,1.336Z" transform="translate(25.787 30.143)"/><path d="M39.052,17.055V32.6H26.207V17.055H17.555v39.9a69.357,69.357,0,0,1,8.652-.533V40.267H39.052V56.972H47.7V17.055Z" transform="translate(0 0.832)"/><path d="M58.08,53.41l-.5-2.875h-.174a9.5,9.5,0,0,1-7.716,3.472,8.568,8.568,0,0,1-8.85-8.847c0-7.572,6.737-11.009,15.881-11.018V33.69c0-1.765-.979-3.808-4.937-3.8a14.85,14.85,0,0,0-7.362,2.021l-1.585-5.6a22.123,22.123,0,0,1,10.589-2.485c9.4,0,11.966,5.846,11.966,12.374V46.506a42.041,42.041,0,0,0,.45,6.9Zm-1.1-13.83c-4.088,0-7.727,1.06-7.727,4.684,0,2.495,1.551,3.606,3.345,3.606a4.431,4.431,0,0,0,4.217-3.078,5.357,5.357,0,0,0,.165-1.475Z" transform="translate(12.264 4.396)"/><rect width="8.652" height="41.73" transform="translate(84.269 16.074)"/><path d="M73.414,57.8V35.122H69.562V28.815h3.852V27.7c0-3.426.951-7.012,3.449-9.394a11.076,11.076,0,0,1,7.7-2.832,16.486,16.486,0,0,1,4.733.631l-.508,6.65a8.82,8.82,0,0,0-2.76-.408c-2.843,0-4.009,2.314-4.009,5.037v1.431h5.565v6.307H82.066V57.8Z" transform="translate(27.391 0)"/><path d="M17.7,46.107a54.194,54.194,0,0,1,9.327-.695c4.478,0,7.786.814,10.043,2.707a9.812,9.812,0,0,1,3.391,7.725,10.885,10.885,0,0,1-3.03,8.081c-2.47,2.4-6.23,3.5-10.2,3.5A17.657,17.657,0,0,1,25,67.3V79.6H17.7ZM25,61.52a10.022,10.022,0,0,0,2.114.163c3.852,0,6.058-2.156,6.058-5.516,0-3.075-1.86-5.079-5.487-5.079A11.431,11.431,0,0,0,25,51.342Z" transform="translate(0.077 15.767)"/><path d="M35.242,59.745c0-3.269-.079-5.737-.2-7.917h6.328l.3,4.279h.185a6.77,6.77,0,0,1,6.124-4.788,6.538,6.538,0,0,1,1.571.136v7.009a8.926,8.926,0,0,0-1.882-.174,4.745,4.745,0,0,0-4.876,3.777A8.975,8.975,0,0,0,42.6,64V76.491H35.242Z" transform="translate(9.209 18.879)"/><rect width="7.359" height="24.661" transform="translate(62.241 70.706)"/><path d="M72.857,75.916a16.031,16.031,0,0,1-6.07,1.021c-7.452,0-12.227-4.71-12.227-12.551,0-7.334,4.8-13.042,13.264-13.042A15.309,15.309,0,0,1,73,52.222l-1.095,5.539a9.4,9.4,0,0,0-3.74-.684c-3.792,0-6.171,2.921-6.151,7.035,0,4.508,2.7,7.015,6.215,7.015a9.611,9.611,0,0,0,3.832-.714Z" transform="translate(19.49 18.892)"/><path d="M74.93,66.589c.183,3.38,3.052,4.867,6.432,4.867a18.51,18.51,0,0,0,6.16-.985L88.5,75.52a22.51,22.51,0,0,1-8.281,1.432c-7.864,0-12.33-4.737-12.33-12.427,0-6.873,4.03-13.206,11.661-13.206,7.186,0,10.227,5.6,10.227,12.114a16.143,16.143,0,0,1-.252,3.156Zm8.061-5.062c.015-2.243-.814-5.191-3.846-5.191-2.91,0-4.09,3.015-4.256,5.191Z" transform="translate(26.512 18.879)"/><path d="M46.441,46.467a4,4,0,0,0,4.165,3.815,4.061,4.061,0,0,0,4.33-3.815Z" transform="translate(15.214 16.323)"/></g></svg>