<svg xmlns="http://www.w3.org/2000/svg" xmlns:xlink="http://www.w3.org/1999/xlink" width="375.43" height="98.618" viewBox="0 0 375.43 98.618"><defs><clipPath id="a"><path d="M0,39.6H375.43V-59.016H0Z" transform="translate(0 59.016)"/></clipPath></defs><g transform="translate(0 -0.001)"><g transform="translate(0 0.001)" clip-path="url(#a)"><text transform="translate(0 55.095)" font-size="72" font-family="Helvetica" letter-spacing="-0.04em"><tspan x="0" y="0">KLUB CCC</tspan></text><g transform="translate(86.495 82.664)"><path d="M3.291,5.035-4.9-7.464V8.242H-3v-9.7L3.291,8.326,9.582-1.462v9.7h1.882V-7.464ZM14.776,8.242h1.9V-7.237h-1.9Zm0-15.477,5.194,0V8.242h9.582V6.566H21.873v-5.5H28.64V-.573H21.873V-5.559h7.678V-7.235ZM38.3,3.379a3.738,3.738,0,0,1-.745,2.515,3.112,3.112,0,0,1-4.336-.042,4.028,4.028,0,0,1-.879-2.535l-1.9.311a5.137,5.137,0,0,0,1.439,3.528,4.78,4.78,0,0,0,3.508,1.293A4.655,4.655,0,0,0,38.924,7.1a5.234,5.234,0,0,0,1.283-3.765V-7.235H38.3Zm6.083-9.56a4.076,4.076,0,0,0-1.345,3.125,4.49,4.49,0,0,0,.56,2.09A3.369,3.369,0,0,0,45.112.276a9.5,9.5,0,0,0,1.323.516l1.614.414a13.69,13.69,0,0,1,2.525.745,2.477,2.477,0,0,1,.889.5,2.1,2.1,0,0,1,.683,1.634A2.332,2.332,0,0,1,51.184,6.1a4.4,4.4,0,0,1-2.617.693,4.577,4.577,0,0,1-2.752-.807,2.812,2.812,0,0,1-1.222-2.152l-1.9.1a4.116,4.116,0,0,0,1.738,3.31,6.808,6.808,0,0,0,4.139,1.2A6.493,6.493,0,0,0,52.52,7.333a3.931,3.931,0,0,0,1.552-3.354,3.105,3.105,0,0,0-1.263-2.752A11.905,11.905,0,0,0,48.733-.324a13.618,13.618,0,0,1-2.318-.683,2.926,2.926,0,0,1-.807-.476A2.189,2.189,0,0,1,44.966-3.1a2.413,2.413,0,0,1,.891-1.945,3.72,3.72,0,0,1,2.461-.745,3.661,3.661,0,0,1,2.39.735,2.721,2.721,0,0,1,.984,2.039l1.923-.124a4.024,4.024,0,0,0-1.551-3.147,5.94,5.94,0,0,0-3.788-1.158,5.485,5.485,0,0,0-3.89,1.262m13.576.869A7.906,7.906,0,0,0,55.852.5a7.858,7.858,0,0,0,2.131,5.815,7.449,7.449,0,0,0,5.5,2.131,7.416,7.416,0,0,0,4.677-1.489,6.24,6.24,0,0,0,2.36-4.036L68.557,2.76a4.6,4.6,0,0,1-1.718,2.948,5.454,5.454,0,0,1-3.414,1.046,5.408,5.408,0,0,1-4.077-1.634A6.393,6.393,0,0,1,57.775.5,6.471,6.471,0,0,1,59.327-4.07a5.273,5.273,0,0,1,4.056-1.676,5.378,5.378,0,0,1,3.456,1.118,4.6,4.6,0,0,1,1.7,3.1L70.5-1.711a6.1,6.1,0,0,0-2.318-4.181,7.359,7.359,0,0,0-4.739-1.551,7.422,7.422,0,0,0-5.483,2.131m14.9-1.923V8.242h9.582V6.566H74.764v-5.5h6.768V-.573H74.764V-5.559h7.678V-7.235ZM95.23,8.242a7.319,7.319,0,0,0,5.381-2.069A7.576,7.576,0,0,0,102.721.5a7.661,7.661,0,0,0-2.09-5.67,7.245,7.245,0,0,0-5.359-2.069H89.229V8.242Zm4.077-12.25A6.25,6.25,0,0,1,100.838.5a6.267,6.267,0,0,1-1.552,4.532A5.339,5.339,0,0,1,95.251,6.63H91.112V-5.622h4.179a5.281,5.281,0,0,1,4.016,1.614m6.042-3.227V8.242h9.664V6.566h-7.76v-13.8ZM115.717,8.242h2.069l1.594-3.5h7.242l1.593,3.5h2.07L123-7.5ZM125.835,3.07h-5.648L123-3.138Zm12.23-8.382A7.906,7.906,0,0,0,135.954.5a7.858,7.858,0,0,0,2.131,5.815,7.449,7.449,0,0,0,5.5,2.131,7.416,7.416,0,0,0,4.677-1.489,6.24,6.24,0,0,0,2.359-4.036l-1.967-.165a4.6,4.6,0,0,1-1.718,2.948,5.454,5.454,0,0,1-3.414,1.046,5.408,5.408,0,0,1-4.077-1.634A6.393,6.393,0,0,1,137.878.5,6.471,6.471,0,0,1,139.43-4.07a5.273,5.273,0,0,1,4.056-1.676,5.378,5.378,0,0,1,3.456,1.118,4.6,4.6,0,0,1,1.7,3.1l1.965-.185a6.1,6.1,0,0,0-2.318-4.181,7.359,7.359,0,0,0-4.739-1.551,7.422,7.422,0,0,0-5.483,2.131m14.9,13.554h1.9V-7.237h-1.9Zm0-15.477,5.194,0V8.242h9.582V6.566h-7.678v-5.5h6.768V-.573h-6.768V-5.559h7.678V-7.235ZM176.347,8.242a5.084,5.084,0,0,0,3.446-1.116,3.96,3.96,0,0,0,1.293-3.167,4.255,4.255,0,0,0-.662-2.431,3.392,3.392,0,0,0-1.76-1.355,3.321,3.321,0,0,0,1.76-3.29,3.8,3.8,0,0,0-1.253-3.031,4.945,4.945,0,0,0-3.362-1.086h-5.793V8.242Zm1.365-13.129a2.354,2.354,0,0,1,.787,1.893,2.159,2.159,0,0,1-2.4,2.483h-4.2V-5.559h3.683a3.174,3.174,0,0,1,2.131.672m.652,6.716a2.559,2.559,0,0,1,.8,2.027,2.494,2.494,0,0,1-.817,2.029,3.366,3.366,0,0,1-2.224.682H171.9V1.125h4.386a3.021,3.021,0,0,1,2.079.7M183.8,8.242h1.9V-7.237h-1.9Zm0-15.477,5.194,0V8.242h9.582V6.566h-7.678v-5.5h6.768V-.573h-6.768V-5.559h7.678V-7.235Z" transform="translate(4.904 7.504)"/></g></g></g></svg>